<svg xmlns="http://www.w3.org/2000/svg" xmlns:xlink="http://www.w3.org/1999/xlink" width="40" zoomAndPan="magnify" viewBox="0 0 30 30.000001" height="40" preserveAspectRatio="xMidYMid meet" version="1.0"><defs><clipPath id="575ead738f"><path d="M 1.390625 2.902344 L 28.246094 2.902344 L 28.246094 26.128906 L 1.390625 26.128906 Z M 1.390625 2.902344 " clip-rule="nonzero"/></clipPath></defs><g clip-path="url(#575ead738f)"><path fill="#ffc100" d="M 23.210938 2.996094 L 6.425781 2.996094 C 3.65625 2.996094 1.390625 5.277344 1.390625 8.0625 L 1.390625 18.1875 C 1.390625 20.972656 3.65625 23.25 6.425781 23.25 L 10.160156 23.25 C 10.453125 23.25 10.75 23.375 10.957031 23.546875 L 13.183594 25.445312 C 14.105469 26.246094 15.488281 26.246094 16.457031 25.445312 L 18.679688 23.546875 C 18.890625 23.335938 19.183594 23.25 19.476562 23.25 L 23.210938 23.25 C 25.980469 23.25 28.246094 20.972656 28.246094 18.1875 L 28.246094 8.0625 C 28.246094 5.277344 25.980469 2.996094 23.210938 2.996094 Z M 6.425781 19.03125 L 6.007812 19.03125 C 5.292969 19.03125 4.75 18.480469 4.75 17.765625 C 4.75 17.046875 5.292969 16.5 6.007812 16.5 L 6.425781 16.5 C 7.140625 16.5 7.683594 17.046875 7.683594 17.765625 C 7.683594 18.480469 7.140625 19.03125 6.425781 19.03125 Z M 13.980469 19.03125 L 11.460938 19.03125 C 10.75 19.03125 10.203125 18.480469 10.203125 17.765625 C 10.203125 17.046875 10.75 16.5 11.460938 16.5 L 13.980469 16.5 C 14.691406 16.5 15.238281 17.046875 15.238281 17.765625 C 15.238281 18.480469 14.691406 19.03125 13.980469 19.03125 Z M 6.007812 13.96875 C 5.292969 13.96875 4.75 13.417969 4.75 12.703125 C 4.75 11.984375 5.292969 11.4375 6.007812 11.4375 L 16.917969 11.4375 C 17.628906 11.4375 18.175781 11.984375 18.175781 12.703125 C 18.175781 13.417969 17.628906 13.96875 16.917969 13.96875 Z M 23.628906 19.03125 L 19.015625 19.03125 C 18.300781 19.03125 17.757812 18.480469 17.757812 17.765625 C 17.757812 17.046875 18.300781 16.5 19.015625 16.5 L 23.628906 16.5 C 24.34375 16.5 24.890625 17.046875 24.890625 17.765625 C 24.890625 18.480469 24.34375 19.03125 23.628906 19.03125 Z M 23.628906 13.96875 L 21.953125 13.96875 C 21.238281 13.96875 20.691406 13.417969 20.691406 12.703125 C 20.691406 11.984375 21.238281 11.4375 21.953125 11.4375 L 23.628906 11.4375 C 24.34375 11.4375 24.890625 11.984375 24.890625 12.703125 C 24.890625 13.417969 24.34375 13.96875 23.628906 13.96875 Z M 23.628906 13.96875 " fill-opacity="1" fill-rule="nonzero"/></g></svg>