<svg xmlns="http://www.w3.org/2000/svg" xmlns:xlink="http://www.w3.org/1999/xlink" width="40" zoomAndPan="magnify" viewBox="0 0 30 30.000001" height="40" preserveAspectRatio="xMidYMid meet" version="1.0"><path fill="#ffc100" d="M 16.75 1.5625 C 15.710938 1.050781 14.496094 1.050781 13.457031 1.5625 L 3.136719 6.644531 C 1.792969 7.304688 1.792969 9.207031 3.136719 9.867188 L 13.457031 14.949219 C 14.496094 15.460938 15.710938 15.460938 16.75 14.949219 L 27.070312 9.867188 C 28.414062 9.207031 28.414062 7.304688 27.070312 6.644531 Z M 3.195312 12.511719 C 3.359375 12.429688 3.550781 12.429688 3.714844 12.511719 L 13.457031 17.308594 C 14.496094 17.820312 15.710938 17.820312 16.75 17.308594 L 26.492188 12.511719 C 26.65625 12.429688 26.847656 12.429688 27.011719 12.511719 L 27.070312 12.542969 C 28.414062 13.203125 28.414062 15.105469 27.070312 15.765625 L 16.75 20.847656 C 15.710938 21.355469 14.496094 21.355469 13.457031 20.847656 L 3.136719 15.765625 C 1.792969 15.105469 1.792969 13.203125 3.136719 12.542969 Z M 3.714844 18.410156 C 3.550781 18.328125 3.359375 18.328125 3.195312 18.410156 L 3.136719 18.4375 C 1.792969 19.097656 1.792969 21 3.136719 21.664062 L 13.457031 26.746094 C 14.496094 27.253906 15.710938 27.253906 16.75 26.746094 L 27.070312 21.664062 C 28.414062 21 28.414062 19.097656 27.070312 18.4375 L 27.011719 18.410156 C 26.847656 18.328125 26.65625 18.328125 26.492188 18.410156 L 16.75 23.207031 C 15.710938 23.714844 14.496094 23.714844 13.457031 23.207031 Z M 3.714844 18.410156 " fill-opacity="1" fill-rule="evenodd"/></svg>