<svg xmlns="http://www.w3.org/2000/svg" xmlns:xlink="http://www.w3.org/1999/xlink" width="40" zoomAndPan="magnify" viewBox="0 0 30 30.000001" height="40" preserveAspectRatio="xMidYMid meet" version="1.0"><path fill="#ffc100" d="M 20.898438 13.417969 C 20.042969 13.417969 19.238281 13.089844 18.628906 12.484375 L 17.148438 11.003906 C 17.003906 11.105469 16.832031 11.160156 16.640625 11.160156 L 14.164062 11.160156 C 13.667969 11.160156 13.257812 10.75 13.257812 10.253906 C 13.257812 9.742188 13.667969 9.34375 14.164062 9.34375 L 15.5 9.34375 L 15.21875 9.0625 C 13.847656 7.683594 13.386719 5.742188 13.839844 3.984375 L 6.234375 3.984375 C 4.828125 3.984375 3.6875 5.136719 3.6875 6.542969 L 3.6875 24.660156 C 3.6875 26.074219 4.828125 27.21875 6.234375 27.21875 L 21.070312 27.21875 C 22.476562 27.21875 23.617188 26.074219 23.617188 24.660156 L 23.617188 12.03125 L 23.164062 12.484375 C 22.558594 13.089844 21.75 13.417969 20.898438 13.417969 Z M 11.671875 20.710938 L 9.902344 22.480469 C 9.71875 22.664062 9.484375 22.753906 9.257812 22.753906 C 9.019531 22.753906 8.792969 22.664062 8.613281 22.480469 L 7.605469 21.476562 C 7.253906 21.121094 7.253906 20.550781 7.605469 20.195312 C 7.960938 19.839844 8.53125 19.839844 8.886719 20.195312 L 9.257812 20.558594 L 10.390625 19.425781 C 10.746094 19.070312 11.316406 19.070312 11.671875 19.433594 C 12.023438 19.789062 12.023438 20.359375 11.671875 20.710938 Z M 11.671875 15.359375 L 9.902344 17.128906 C 9.71875 17.308594 9.484375 17.390625 9.257812 17.390625 C 9.019531 17.390625 8.792969 17.308594 8.613281 17.128906 L 7.605469 16.121094 C 7.253906 15.769531 7.253906 15.195312 7.605469 14.84375 C 7.960938 14.480469 8.53125 14.488281 8.886719 14.832031 L 9.257812 15.207031 L 10.390625 14.070312 C 10.746094 13.71875 11.316406 13.71875 11.671875 14.070312 C 12.023438 14.425781 12.023438 15.007812 11.671875 15.359375 Z M 11.671875 10.007812 L 9.902344 11.777344 C 9.71875 11.957031 9.484375 12.039062 9.257812 12.039062 C 9.019531 12.039062 8.792969 11.957031 8.613281 11.777344 L 7.605469 10.769531 C 7.253906 10.414062 7.253906 9.835938 7.605469 9.480469 C 7.960938 9.128906 8.53125 9.128906 8.886719 9.480469 L 9.257812 9.851562 L 10.390625 8.71875 C 10.746094 8.363281 11.316406 8.363281 11.671875 8.71875 C 12.023438 9.074219 12.023438 9.652344 11.671875 10.007812 Z M 19.109375 21.863281 L 14.175781 21.863281 C 13.667969 21.863281 13.265625 21.457031 13.265625 20.957031 C 13.265625 20.457031 13.667969 20.050781 14.175781 20.050781 L 19.109375 20.050781 C 19.609375 20.050781 20.015625 20.457031 20.015625 20.957031 C 20.015625 21.457031 19.609375 21.863281 19.109375 21.863281 Z M 19.109375 16.511719 L 14.164062 16.511719 C 13.667969 16.511719 13.257812 16.105469 13.257812 15.605469 C 13.257812 15.105469 13.667969 14.699219 14.164062 14.699219 L 19.109375 14.699219 C 19.609375 14.699219 20.015625 15.105469 20.015625 15.605469 C 20.015625 16.105469 19.609375 16.511719 19.109375 16.511719 Z M 19.109375 16.511719 " fill-opacity="1" fill-rule="nonzero"/><path fill="#ffc100" d="M 25.277344 2.820312 C 24.089844 1.648438 22.253906 1.511719 20.902344 2.402344 C 19.578125 1.511719 17.65625 1.679688 16.5 2.839844 C 15.144531 4.199219 15.144531 6.414062 16.5 7.777344 L 19.917969 11.203125 C 20.179688 11.464844 20.527344 11.609375 20.898438 11.609375 C 21.265625 11.609375 21.613281 11.464844 21.875 11.203125 L 25.292969 7.773438 C 25.957031 7.113281 26.316406 6.230469 26.3125 5.292969 C 26.3125 4.355469 25.941406 3.476562 25.277344 2.820312 Z M 25.277344 2.820312 " fill-opacity="1" fill-rule="nonzero"/></svg>